<mxfile host="app.diagrams.net" modified="2023-05-06T23:21:10.380Z" agent="Mozilla/5.0 (Windows NT 10.0; Win64; x64) AppleWebKit/537.36 (KHTML, like Gecko) Chrome/113.0.0.0 Safari/537.36" etag="mun_RSiiXRsQyPU7JF4A" version="21.2.9" type="github">
  <diagram name="Página-1" id="T0UPieKqZwqO7-ldxrbA">
    <mxGraphModel dx="899" dy="3164" grid="1" gridSize="10" guides="1" tooltips="1" connect="1" arrows="1" fold="1" page="1" pageScale="1" pageWidth="827" pageHeight="1169" math="0" shadow="0">
      <root>
        <mxCell id="0" />
        <mxCell id="1" parent="0" />
        <mxCell id="bUb05yZWmExQXLlnYKl2-33" value="" style="edgeStyle=orthogonalEdgeStyle;rounded=0;orthogonalLoop=1;jettySize=auto;html=1;" edge="1" parent="1" source="bUb05yZWmExQXLlnYKl2-34" target="bUb05yZWmExQXLlnYKl2-38">
          <mxGeometry relative="1" as="geometry" />
        </mxCell>
        <mxCell id="bUb05yZWmExQXLlnYKl2-34" value="Acessa o aplicativo" style="whiteSpace=wrap;html=1;" vertex="1" parent="1">
          <mxGeometry x="215" y="-1747.5" width="120" height="60" as="geometry" />
        </mxCell>
        <mxCell id="bUb05yZWmExQXLlnYKl2-35" value="" style="edgeStyle=orthogonalEdgeStyle;rounded=0;orthogonalLoop=1;jettySize=auto;html=1;exitX=1;exitY=0.5;exitDx=0;exitDy=0;exitPerimeter=0;" edge="1" parent="1" source="bUb05yZWmExQXLlnYKl2-45" target="bUb05yZWmExQXLlnYKl2-34">
          <mxGeometry relative="1" as="geometry">
            <mxPoint x="155" y="-1717.5" as="sourcePoint" />
          </mxGeometry>
        </mxCell>
        <mxCell id="bUb05yZWmExQXLlnYKl2-36" value="Não" style="edgeStyle=orthogonalEdgeStyle;rounded=0;orthogonalLoop=1;jettySize=auto;html=1;" edge="1" parent="1" source="bUb05yZWmExQXLlnYKl2-38" target="bUb05yZWmExQXLlnYKl2-39">
          <mxGeometry relative="1" as="geometry" />
        </mxCell>
        <mxCell id="bUb05yZWmExQXLlnYKl2-48" value="Sim" style="edgeStyle=orthogonalEdgeStyle;rounded=0;orthogonalLoop=1;jettySize=auto;html=1;" edge="1" parent="1" source="bUb05yZWmExQXLlnYKl2-38" target="bUb05yZWmExQXLlnYKl2-47">
          <mxGeometry relative="1" as="geometry" />
        </mxCell>
        <mxCell id="bUb05yZWmExQXLlnYKl2-38" value="Usuário&lt;br&gt;possui alguma conta logada?" style="rhombus;whiteSpace=wrap;html=1;" vertex="1" parent="1">
          <mxGeometry x="405" y="-1770" width="135" height="105" as="geometry" />
        </mxCell>
        <mxCell id="bUb05yZWmExQXLlnYKl2-39" value="Página de login" style="whiteSpace=wrap;html=1;" vertex="1" parent="1">
          <mxGeometry x="412.5" y="-1870" width="120" height="60" as="geometry" />
        </mxCell>
        <mxCell id="bUb05yZWmExQXLlnYKl2-40" value="Possui cadastro?" style="rhombus;whiteSpace=wrap;html=1;" vertex="1" parent="1">
          <mxGeometry x="625" y="-1880" width="80" height="80" as="geometry" />
        </mxCell>
        <mxCell id="bUb05yZWmExQXLlnYKl2-41" value="" style="edgeStyle=orthogonalEdgeStyle;rounded=0;orthogonalLoop=1;jettySize=auto;html=1;entryX=0;entryY=0.5;entryDx=0;entryDy=0;" edge="1" parent="1" source="bUb05yZWmExQXLlnYKl2-39">
          <mxGeometry relative="1" as="geometry">
            <mxPoint x="540" y="-1840" as="sourcePoint" />
            <mxPoint x="625" y="-1840" as="targetPoint" />
          </mxGeometry>
        </mxCell>
        <mxCell id="bUb05yZWmExQXLlnYKl2-42" value="Não" style="edgeStyle=orthogonalEdgeStyle;rounded=0;orthogonalLoop=1;jettySize=auto;html=1;" edge="1" parent="1" source="bUb05yZWmExQXLlnYKl2-40" target="bUb05yZWmExQXLlnYKl2-46">
          <mxGeometry relative="1" as="geometry" />
        </mxCell>
        <mxCell id="bUb05yZWmExQXLlnYKl2-43" value="Sim" style="edgeStyle=orthogonalEdgeStyle;rounded=0;orthogonalLoop=1;jettySize=auto;html=1;" edge="1" parent="1" target="bUb05yZWmExQXLlnYKl2-44">
          <mxGeometry relative="1" as="geometry">
            <mxPoint x="705" y="-1840" as="sourcePoint" />
          </mxGeometry>
        </mxCell>
        <mxCell id="bUb05yZWmExQXLlnYKl2-54" style="edgeStyle=orthogonalEdgeStyle;rounded=0;orthogonalLoop=1;jettySize=auto;html=1;entryX=0.5;entryY=0;entryDx=0;entryDy=0;" edge="1" parent="1" source="bUb05yZWmExQXLlnYKl2-44" target="bUb05yZWmExQXLlnYKl2-47">
          <mxGeometry relative="1" as="geometry">
            <Array as="points">
              <mxPoint x="830" y="-1770" />
              <mxPoint x="665" y="-1770" />
            </Array>
          </mxGeometry>
        </mxCell>
        <mxCell id="bUb05yZWmExQXLlnYKl2-44" value="Insere login e senha e faz acesso" style="whiteSpace=wrap;html=1;" vertex="1" parent="1">
          <mxGeometry x="770" y="-1870" width="120" height="60" as="geometry" />
        </mxCell>
        <mxCell id="bUb05yZWmExQXLlnYKl2-45" value="Início" style="ellipse;whiteSpace=wrap;html=1;aspect=fixed;" vertex="1" parent="1">
          <mxGeometry x="100" y="-1742.5" width="50" height="50" as="geometry" />
        </mxCell>
        <mxCell id="bUb05yZWmExQXLlnYKl2-52" style="edgeStyle=orthogonalEdgeStyle;rounded=0;orthogonalLoop=1;jettySize=auto;html=1;entryX=0;entryY=0.5;entryDx=0;entryDy=0;entryPerimeter=0;" edge="1" parent="1" source="bUb05yZWmExQXLlnYKl2-46" target="bUb05yZWmExQXLlnYKl2-49">
          <mxGeometry relative="1" as="geometry" />
        </mxCell>
        <mxCell id="bUb05yZWmExQXLlnYKl2-55" style="edgeStyle=orthogonalEdgeStyle;rounded=0;orthogonalLoop=1;jettySize=auto;html=1;exitX=0;exitY=0.5;exitDx=0;exitDy=0;entryX=0;entryY=0;entryDx=0;entryDy=0;" edge="1" parent="1" source="bUb05yZWmExQXLlnYKl2-46" target="bUb05yZWmExQXLlnYKl2-40">
          <mxGeometry relative="1" as="geometry">
            <mxPoint x="620" y="-1840" as="targetPoint" />
            <Array as="points">
              <mxPoint x="580" y="-1970" />
              <mxPoint x="580" y="-1880" />
              <mxPoint x="645" y="-1880" />
            </Array>
          </mxGeometry>
        </mxCell>
        <mxCell id="bUb05yZWmExQXLlnYKl2-46" value="Página de cadastro pai" style="whiteSpace=wrap;html=1;" vertex="1" parent="1">
          <mxGeometry x="605" y="-2000" width="120" height="60" as="geometry" />
        </mxCell>
        <mxCell id="bUb05yZWmExQXLlnYKl2-58" value="" style="edgeStyle=orthogonalEdgeStyle;rounded=0;orthogonalLoop=1;jettySize=auto;html=1;" edge="1" parent="1" source="bUb05yZWmExQXLlnYKl2-47" target="bUb05yZWmExQXLlnYKl2-57">
          <mxGeometry relative="1" as="geometry" />
        </mxCell>
        <mxCell id="bUb05yZWmExQXLlnYKl2-47" value="Página Inicial" style="whiteSpace=wrap;html=1;" vertex="1" parent="1">
          <mxGeometry x="605" y="-1747.5" width="120" height="60" as="geometry" />
        </mxCell>
        <mxCell id="bUb05yZWmExQXLlnYKl2-53" style="edgeStyle=orthogonalEdgeStyle;rounded=0;orthogonalLoop=1;jettySize=auto;html=1;exitX=0.5;exitY=1;exitDx=0;exitDy=0;exitPerimeter=0;entryX=0.6;entryY=0.017;entryDx=0;entryDy=0;entryPerimeter=0;" edge="1" parent="1" source="bUb05yZWmExQXLlnYKl2-49" target="bUb05yZWmExQXLlnYKl2-44">
          <mxGeometry relative="1" as="geometry">
            <Array as="points">
              <mxPoint x="842" y="-1990" />
            </Array>
          </mxGeometry>
        </mxCell>
        <mxCell id="bUb05yZWmExQXLlnYKl2-49" value="pai db" style="shape=cylinder3;whiteSpace=wrap;html=1;boundedLbl=1;backgroundOutline=1;size=15;" vertex="1" parent="1">
          <mxGeometry x="810" y="-2070" width="60" height="80" as="geometry" />
        </mxCell>
        <mxCell id="bUb05yZWmExQXLlnYKl2-61" value="Sim" style="edgeStyle=orthogonalEdgeStyle;rounded=0;orthogonalLoop=1;jettySize=auto;html=1;" edge="1" parent="1" source="bUb05yZWmExQXLlnYKl2-57" target="bUb05yZWmExQXLlnYKl2-60">
          <mxGeometry relative="1" as="geometry" />
        </mxCell>
        <mxCell id="bUb05yZWmExQXLlnYKl2-65" value="Não" style="edgeStyle=orthogonalEdgeStyle;rounded=0;orthogonalLoop=1;jettySize=auto;html=1;" edge="1" parent="1" source="bUb05yZWmExQXLlnYKl2-57" target="bUb05yZWmExQXLlnYKl2-64">
          <mxGeometry relative="1" as="geometry" />
        </mxCell>
        <mxCell id="bUb05yZWmExQXLlnYKl2-57" value="Tem filhos cadastrados?" style="rhombus;whiteSpace=wrap;html=1;" vertex="1" parent="1">
          <mxGeometry x="825" y="-1761.25" width="105" height="87.5" as="geometry" />
        </mxCell>
        <mxCell id="bUb05yZWmExQXLlnYKl2-74" value="" style="edgeStyle=orthogonalEdgeStyle;rounded=0;orthogonalLoop=1;jettySize=auto;html=1;" edge="1" parent="1" source="bUb05yZWmExQXLlnYKl2-60" target="bUb05yZWmExQXLlnYKl2-73">
          <mxGeometry relative="1" as="geometry" />
        </mxCell>
        <mxCell id="bUb05yZWmExQXLlnYKl2-60" value="Listagem dos filhos" style="whiteSpace=wrap;html=1;" vertex="1" parent="1">
          <mxGeometry x="1002.5" y="-1747.5" width="120" height="60" as="geometry" />
        </mxCell>
        <mxCell id="bUb05yZWmExQXLlnYKl2-68" style="edgeStyle=orthogonalEdgeStyle;rounded=0;orthogonalLoop=1;jettySize=auto;html=1;entryX=0.5;entryY=0;entryDx=0;entryDy=0;entryPerimeter=0;" edge="1" parent="1" source="bUb05yZWmExQXLlnYKl2-64" target="bUb05yZWmExQXLlnYKl2-67">
          <mxGeometry relative="1" as="geometry" />
        </mxCell>
        <mxCell id="bUb05yZWmExQXLlnYKl2-70" style="edgeStyle=orthogonalEdgeStyle;rounded=0;orthogonalLoop=1;jettySize=auto;html=1;entryX=0.5;entryY=1;entryDx=0;entryDy=0;exitX=1;exitY=0;exitDx=0;exitDy=52.5;exitPerimeter=0;" edge="1" parent="1" source="bUb05yZWmExQXLlnYKl2-67" target="bUb05yZWmExQXLlnYKl2-60">
          <mxGeometry relative="1" as="geometry" />
        </mxCell>
        <mxCell id="bUb05yZWmExQXLlnYKl2-72" style="edgeStyle=orthogonalEdgeStyle;rounded=0;orthogonalLoop=1;jettySize=auto;html=1;entryX=0;entryY=1;entryDx=0;entryDy=0;exitX=0;exitY=0.5;exitDx=0;exitDy=0;" edge="1" parent="1" source="bUb05yZWmExQXLlnYKl2-64" target="bUb05yZWmExQXLlnYKl2-57">
          <mxGeometry relative="1" as="geometry">
            <mxPoint x="810" y="-1550" as="sourcePoint" />
          </mxGeometry>
        </mxCell>
        <mxCell id="bUb05yZWmExQXLlnYKl2-64" value="Página cadastro filho" style="whiteSpace=wrap;html=1;" vertex="1" parent="1">
          <mxGeometry x="817.5" y="-1580" width="120" height="60" as="geometry" />
        </mxCell>
        <mxCell id="bUb05yZWmExQXLlnYKl2-67" value="filho db" style="shape=cylinder3;whiteSpace=wrap;html=1;boundedLbl=1;backgroundOutline=1;size=15;" vertex="1" parent="1">
          <mxGeometry x="847.5" y="-1470" width="60" height="80" as="geometry" />
        </mxCell>
        <mxCell id="bUb05yZWmExQXLlnYKl2-73" value="Tarefas dos filhos" style="whiteSpace=wrap;html=1;" vertex="1" parent="1">
          <mxGeometry x="1202.5" y="-1747.5" width="120" height="60" as="geometry" />
        </mxCell>
      </root>
    </mxGraphModel>
  </diagram>
</mxfile>
